<svg width="113" height="24" viewBox="0 0 113 24" fill="none" xmlns="http://www.w3.org/2000/svg">
<path fill-rule="evenodd" clip-rule="evenodd" d="M23.4186 1.69042L23.4226 1.69177L23.9907 1.88706V22.1376L23.3919 22.3181C17.1121 24.2106 11.4158 24.21 7.2908 23.7373C5.22741 23.5009 3.55328 23.1459 2.39038 22.8484C1.80876 22.6997 1.3545 22.5651 1.04281 22.4667C0.886945 22.4175 0.766675 22.3773 0.683896 22.3489C0.642505 22.3347 0.610482 22.3234 0.588063 22.3154L0.561667 22.3059L0.553925 22.3031L0.551428 22.3022L0.54985 22.3016L0 22.0983V1.87405L0.58439 1.68637C6.49779 -0.212721 12.2018 -0.209116 16.4137 0.262419C18.5223 0.498483 20.265 0.85272 21.484 1.14905C22.0938 1.29727 22.5733 1.43118 22.9028 1.52888C23.0675 1.57773 23.1948 1.61755 23.2823 1.64561C23.326 1.65964 23.3598 1.67072 23.3833 1.67853L23.4107 1.68774L23.4186 1.69042ZM1.68356 3.10786V20.903C1.96085 20.9882 2.33865 21.0974 2.80762 21.2174C3.90699 21.4986 5.50529 21.8382 7.48245 22.0647C11.3067 22.5029 16.5338 22.5169 22.3072 20.8812V3.10866C22.0081 3.0218 21.5967 2.90904 21.0864 2.78497C19.9248 2.50261 18.253 2.16242 16.2264 1.93553C12.3086 1.49692 7.09476 1.48506 1.68356 3.10786ZM18.5192 11.9533L8.67034 17.6395L8.67034 6.26707L18.5192 11.9533ZM41.3724 5.87749V17.5092H38.1905V10.9863L36.0692 14.1328H34.4075L32.0741 10.9863V17.5092H29.1573V5.87749H32.0918L35.4505 10.4383L38.4556 5.87749H41.3724ZM42.993 8.51142V5.87749H53.847V8.51142H50.0463V17.5092H46.8114V8.51142H42.993ZM66.5146 17.5092V5.87749H63.5978V12.2944L58.3653 5.87749H55.4662V17.5092H58.383V10.8625L63.8453 17.5092H66.5146ZM74.5622 5.87749C77.5144 5.87749 79.176 7.25632 79.176 9.58974C79.176 11.9585 77.4436 13.4081 74.5269 13.4081H71.5394V17.5092H69.7186V5.87749H74.5622ZM74.4385 11.9055C76.3476 11.9055 77.2669 11.057 77.2669 9.62509C77.2669 8.19322 76.3476 7.38006 74.4385 7.38006H71.5394V11.9055H74.4385ZM83.4509 5.87749H81.6301V17.5092H89.8501V15.9713H83.4509V5.87749ZM100.332 17.5269L99.0594 14.5571H93.4733L92.2182 17.5092H90.4682L95.5062 5.87749H97.2209L102.241 17.5092L100.332 17.5269ZM98.423 13.0545L96.2663 7.99877L94.1097 13.0545H98.423ZM112.915 5.87749H110.988L107.364 11.2868L103.775 5.87749H101.69L106.392 12.701V17.5092H108.195V12.701L112.915 5.87749Z" fill="#FDCF1E"/>
</svg>
